<?xml version="1.0" encoding="utf-8"?>
<!-- Generator: Adobe Illustrator 13.0.1, SVG Export Plug-In . SVG Version: 6.00 Build 14948)  -->
<!DOCTYPE svg PUBLIC "-//W3C//DTD SVG 1.1//EN" "http://www.w3.org/Graphics/SVG/1.1/DTD/svg11.dtd">
<svg version="1.1" id="Layer_1" xmlns="http://www.w3.org/2000/svg" xmlns:xlink="http://www.w3.org/1999/xlink" x="0px" y="0px"
	 width="380.705px" height="447.865px" viewBox="0 0 380.705 447.865" enable-background="new 0 0 380.705 447.865"
	 xml:space="preserve">
<g>
	<g>
		<path fill="#FFFFFF" d="M322.128,58.577C288.402,24.854,241.826,4.004,190.354,4.002c-51.475,0.002-98.05,20.852-131.777,54.575
			C24.851,92.304,4.001,138.88,4.001,190.354c0,51.474,20.85,98.049,54.575,131.776c33.728,33.724,80.303,54.573,131.777,54.575
			c51.472-0.002,98.048-20.852,131.775-54.575c33.725-33.728,54.574-80.303,54.576-131.776
			C376.703,138.88,355.853,92.304,322.128,58.577z"/>
		<path fill="#BBC0C3" d="M190.354,0.001C85.207,0.003,0.003,85.209,0,190.354c0.003,105.145,85.207,190.351,190.354,190.353
			c105.144-0.002,190.349-85.208,190.351-190.353C380.703,85.209,295.498,0.003,190.354,0.001z M190.354,376.706
			c-51.475-0.002-98.05-20.852-131.777-54.575C24.851,288.403,4.001,241.828,4.001,190.354c0-51.475,20.85-98.05,54.575-131.777
			C92.304,24.854,138.879,4.004,190.354,4.002c51.472,0.002,98.048,20.852,131.775,54.575
			c33.725,33.727,54.574,80.303,54.576,131.777c-0.002,51.474-20.852,98.049-54.576,131.776
			C288.402,355.854,241.826,376.704,190.354,376.706z"/>
	</g>
	<path fill-rule="evenodd" clip-rule="evenodd" fill="#A0A4A7" d="M190.354,135.995l1.296-0.36
		c-64.008,19.872-114.697,53.928-115.705,78.911c-1.152,26.784,55.008,33.048,125.351,14.04
		c70.344-19.008,128.232-56.159,129.385-82.872c0.576-13.896-14.256-22.248-38.447-24.408c29.592,1.296,48.096,9.936,48.096,25.272
		c0,29.304-67.176,72.144-149.976,95.615c-82.8,23.473-149.977,18.721-149.977-10.584
		C40.377,202.307,107.554,159.467,190.354,135.995L190.354,135.995z"/>
	
		<polygon fill-rule="evenodd" clip-rule="evenodd" fill="#DB2128" stroke="#DB2128" stroke-width="0.25" stroke-miterlimit="2.6131" points="
		69.753,290.146 277.689,90.563 258.826,247.449 224.482,208.066 69.753,290.146 	"/>
	<g>
		<path fill="#A0A4A7" stroke="#A0A4A7" d="M7.376,404.739h8.36c4.66,0,7.817,0.191,9.473,0.573
			c2.491,0.574,4.517,1.802,6.077,3.685c1.56,1.883,2.34,4.2,2.34,6.952c0,2.293-0.538,4.31-1.612,6.049s-2.61,3.054-4.606,3.942
			s-4.754,1.343-8.271,1.361l15.115,19.5h-5.202l-15.117-19.5h-2.368v19.5H7.376V404.739z M11.563,408.864v14.313l7.243,0.058
			c2.805,0,4.881-0.267,6.227-0.802c1.346-0.534,2.396-1.388,3.149-2.562s1.131-2.485,1.131-3.937c0-1.412-0.382-2.695-1.146-3.85
			s-1.766-1.98-3.006-2.477s-3.302-0.744-6.184-0.744H11.563z"/>
		<path fill="#A0A4A7" stroke="#A0A4A7" d="M62.635,403.677c6.36,0,11.684,2.126,15.969,6.378s6.428,9.486,6.428,15.701
			c0,6.159-2.138,11.384-6.413,15.674s-9.489,6.435-15.641,6.435c-6.228,0-11.483-2.135-15.769-6.406
			c-4.285-4.271-6.428-9.438-6.428-15.502c0-4.041,0.976-7.788,2.928-11.239s4.613-6.153,7.984-8.108
			C55.064,404.654,58.711,403.677,62.635,403.677z M62.82,407.739c-3.112,0-6.063,0.813-8.85,2.437
			c-2.787,1.625-4.964,3.813-6.529,6.564s-2.348,5.819-2.348,9.202c0,5.008,1.732,9.236,5.197,12.686s7.642,5.174,12.529,5.174
			c3.265,0,6.286-0.793,9.063-2.379s4.944-3.756,6.501-6.508c1.556-2.752,2.334-5.81,2.334-9.173c0-3.344-0.778-6.368-2.334-9.073
			c-1.557-2.704-3.747-4.868-6.572-6.493C68.986,408.552,65.989,407.739,62.82,407.739z"/>
		<path fill="#A0A4A7" stroke="#A0A4A7" d="M89.16,439.009l3.574-2.145c2.523,4.625,5.44,6.938,8.749,6.938
			c1.414,0,2.743-0.328,3.986-0.986s2.189-1.54,2.84-2.646c0.65-1.105,0.976-2.278,0.976-3.519c0-1.41-0.478-2.793-1.432-4.147
			c-1.317-1.867-3.723-4.117-7.216-6.748c-3.513-2.649-5.698-4.565-6.557-5.748c-1.489-1.986-2.233-4.135-2.233-6.446
			c0-1.833,0.439-3.504,1.319-5.013c0.879-1.509,2.117-2.698,3.715-3.567c1.597-0.869,3.332-1.304,5.206-1.304
			c1.988,0,3.849,0.492,5.579,1.475s3.562,2.791,5.493,5.424l-3.432,2.602c-1.594-2.088-2.953-3.464-4.076-4.128
			c-1.124-0.664-2.349-0.997-3.673-0.997c-1.71,0-3.107,0.516-4.192,1.545s-1.627,2.297-1.627,3.803c0,0.916,0.191,1.803,0.574,2.66
			c0.383,0.858,1.081,1.793,2.096,2.803c0.555,0.534,2.374,1.936,5.456,4.204c3.656,2.686,6.163,5.076,7.522,7.171
			c1.359,2.096,2.039,4.2,2.039,6.313c0,3.048-1.162,5.695-3.484,7.942c-2.322,2.248-5.146,3.371-8.473,3.371
			c-2.562,0-4.884-0.679-6.968-2.036S90.918,442.198,89.16,439.009z"/>
		<path fill="#A0A4A7" stroke="#A0A4A7" d="M161.815,412.444l-3.317,2.545c-1.823-2.379-4.012-4.182-6.566-5.409
			c-2.555-1.227-5.361-1.841-8.418-1.841c-3.343,0-6.438,0.808-9.287,2.421c-2.85,1.614-5.058,3.782-6.624,6.503
			c-1.566,2.722-2.35,5.782-2.35,9.182c0,5.138,1.752,9.426,5.256,12.863s7.924,5.156,13.261,5.156
			c5.868,0,10.777-2.313,14.729-6.938l3.317,2.517c-2.092,2.683-4.7,4.757-7.827,6.223c-3.127,1.465-6.619,2.198-10.478,2.198
			c-7.338,0-13.125-2.45-17.363-7.351c-3.555-4.137-5.332-9.133-5.332-14.986c0-6.158,2.152-11.34,6.458-15.544
			c4.305-4.204,9.698-6.307,16.181-6.307c3.915,0,7.45,0.769,10.605,2.306S159.8,409.673,161.815,412.444z"/>
		<path fill="#A0A4A7" stroke="#A0A4A7" d="M190.261,403.677c6.36,0,11.684,2.126,15.969,6.378s6.428,9.486,6.428,15.701
			c0,6.159-2.139,11.384-6.414,15.674s-9.488,6.435-15.64,6.435c-6.228,0-11.483-2.135-15.769-6.406
			c-4.285-4.271-6.428-9.438-6.428-15.502c0-4.041,0.976-7.788,2.928-11.239s4.613-6.153,7.984-8.108
			C182.69,404.654,186.337,403.677,190.261,403.677z M190.446,407.739c-3.112,0-6.063,0.813-8.85,2.437
			c-2.787,1.625-4.964,3.813-6.529,6.564s-2.348,5.819-2.348,9.202c0,5.008,1.732,9.236,5.197,12.686s7.642,5.174,12.529,5.174
			c3.264,0,6.286-0.793,9.063-2.379s4.945-3.756,6.502-6.508c1.555-2.752,2.334-5.81,2.334-9.173c0-3.344-0.779-6.368-2.334-9.073
			c-1.557-2.704-3.748-4.868-6.572-6.493C196.613,408.552,193.615,407.739,190.446,407.739z"/>
		<path fill="#A0A4A7" stroke="#A0A4A7" d="M216.787,439.009l3.574-2.145c2.523,4.625,5.439,6.938,8.748,6.938
			c1.414,0,2.744-0.328,3.986-0.986c1.244-0.658,2.189-1.54,2.84-2.646c0.65-1.105,0.977-2.278,0.977-3.519
			c0-1.41-0.479-2.793-1.432-4.147c-1.318-1.867-3.723-4.117-7.217-6.748c-3.512-2.649-5.697-4.565-6.557-5.748
			c-1.488-1.986-2.232-4.135-2.232-6.446c0-1.833,0.439-3.504,1.318-5.013s2.117-2.698,3.715-3.567s3.332-1.304,5.207-1.304
			c1.988,0,3.848,0.492,5.578,1.475s3.563,2.791,5.494,5.424l-3.432,2.602c-1.594-2.088-2.953-3.464-4.076-4.128
			c-1.125-0.664-2.35-0.997-3.674-0.997c-1.709,0-3.107,0.516-4.191,1.545c-1.086,1.029-1.627,2.297-1.627,3.803
			c0,0.916,0.191,1.803,0.574,2.66c0.383,0.858,1.08,1.793,2.096,2.803c0.555,0.534,2.373,1.936,5.455,4.204
			c3.656,2.686,6.164,5.076,7.523,7.171c1.359,2.096,2.039,4.2,2.039,6.313c0,3.048-1.162,5.695-3.484,7.942
			c-2.322,2.248-5.146,3.371-8.473,3.371c-2.563,0-4.885-0.679-6.969-2.036S218.544,442.198,216.787,439.009z"/>
		<path fill="#A0A4A7" stroke="#A0A4A7" d="M248.443,446.802l5.936-42.063h0.732l17.113,34.5l16.982-34.5h0.627l5.984,42.063h-4.066
			l-4.152-30.063l-14.859,30.063h-1.104l-15.037-30.313l-4.098,30.313H248.443z"/>
		<path fill="#A0A4A7" stroke="#A0A4A7" d="M324.089,403.677c6.361,0,11.684,2.126,15.969,6.378s6.428,9.486,6.428,15.701
			c0,6.159-2.137,11.384-6.412,15.674s-9.49,6.435-15.641,6.435c-6.229,0-11.484-2.135-15.77-6.406
			c-4.285-4.271-6.428-9.438-6.428-15.502c0-4.041,0.977-7.788,2.928-11.239c1.953-3.451,4.613-6.153,7.984-8.108
			C316.519,404.654,320.166,403.677,324.089,403.677z M324.275,407.739c-3.111,0-6.063,0.813-8.85,2.437
			c-2.787,1.625-4.963,3.813-6.529,6.564c-1.564,2.752-2.348,5.819-2.348,9.202c0,5.008,1.732,9.236,5.197,12.686
			s7.643,5.174,12.529,5.174c3.266,0,6.287-0.793,9.064-2.379s4.943-3.756,6.5-6.508s2.334-5.81,2.334-9.173
			c0-3.344-0.777-6.368-2.334-9.073c-1.557-2.704-3.746-4.868-6.572-6.493C330.441,408.552,327.445,407.739,324.275,407.739z"/>
		<path fill="#A0A4A7" stroke="#A0A4A7" d="M350.617,439.009l3.574-2.145c2.523,4.625,5.439,6.938,8.748,6.938
			c1.414,0,2.744-0.328,3.986-0.986c1.244-0.658,2.189-1.54,2.84-2.646c0.65-1.105,0.977-2.278,0.977-3.519
			c0-1.41-0.479-2.793-1.432-4.147c-1.318-1.867-3.723-4.117-7.217-6.748c-3.512-2.649-5.697-4.565-6.557-5.748
			c-1.488-1.986-2.232-4.135-2.232-6.446c0-1.833,0.439-3.504,1.318-5.013s2.117-2.698,3.715-3.567s3.332-1.304,5.207-1.304
			c1.988,0,3.848,0.492,5.578,1.475s3.563,2.791,5.494,5.424l-3.432,2.602c-1.594-2.088-2.953-3.464-4.076-4.128
			c-1.125-0.664-2.35-0.997-3.674-0.997c-1.709,0-3.107,0.516-4.191,1.545c-1.086,1.029-1.627,2.297-1.627,3.803
			c0,0.916,0.191,1.803,0.574,2.66c0.383,0.858,1.08,1.793,2.096,2.803c0.555,0.534,2.373,1.936,5.455,4.204
			c3.656,2.686,6.164,5.076,7.523,7.171c1.359,2.096,2.039,4.2,2.039,6.313c0,3.048-1.162,5.695-3.484,7.942
			c-2.322,2.248-5.146,3.371-8.473,3.371c-2.563,0-4.885-0.679-6.969-2.036S352.375,442.198,350.617,439.009z"/>
	</g>
</g>
</svg>
