<?xml version="1.0" encoding="iso-8859-1"?>
<!-- Generator: Adobe Illustrator 19.0.0, SVG Export Plug-In . SVG Version: 6.00 Build 0)  -->
<svg version="1.1" id="Capa_1" xmlns="http://www.w3.org/2000/svg" xmlns:xlink="http://www.w3.org/1999/xlink" x="0px" y="0px"
	 viewBox="0 0 511 511" style="enable-background:new 0 0 511 511;" xml:space="preserve">
<path d="M503.5,136h-192c-4.142,0-7.5,3.358-7.5,7.5v8.5h-17v-16.5c0-8.547-6.953-15.5-15.5-15.5H263v-8.5
	c0-4.142-3.358-7.5-7.5-7.5s-7.5,3.358-7.5,7.5v8.5h-8.5c-8.547,0-15.5,6.953-15.5,15.5V152h-17v-8.5c0-4.142-3.358-7.5-7.5-7.5H7.5
	c-4.142,0-7.5,3.358-7.5,7.5v32c0,4.142,3.358,7.5,7.5,7.5H176v16.5c0,8.547,6.953,15.5,15.5,15.5h31.999
	c0.09,0,0.177-0.01,0.265-0.013c0.882,1.189,1.833,2.323,2.84,3.405c-1.602,1.547-2.604,3.711-2.604,6.109V248h-17v-8.5
	c0-4.142-3.358-7.5-7.5-7.5h-144c-4.142,0-7.5,3.358-7.5,7.5v32c0,4.142,3.358,7.5,7.5,7.5h144c4.142,0,7.5-3.358,7.5-7.5V263h17
	v31.5c0,3.49,2.116,6.493,5.13,7.8c-1.919,2.933-3.363,6.202-4.221,9.7H207v-8.5c0-4.142-3.358-7.5-7.5-7.5h-96
	c-4.142,0-7.5,3.358-7.5,7.5v32c0,4.142,3.358,7.5,7.5,7.5h96c4.142,0,7.5-3.358,7.5-7.5V327h17.909
	c2.178,8.881,8.13,16.29,16.053,20.431l-4.422,4.422c-2.928,2.927-4.541,6.82-4.541,10.96V399.5c0,4.142,3.358,7.5,7.5,7.5h32
	c4.142,0,7.5-3.358,7.5-7.5v-36.686c0-4.14-1.612-8.033-4.54-10.96l-4.423-4.423c7.924-4.141,13.875-11.551,16.053-20.431H304v8.5
	c0,4.142,3.358,7.5,7.5,7.5h96c4.142,0,7.5-3.358,7.5-7.5v-32c0-4.142-3.358-7.5-7.5-7.5h-96c-4.142,0-7.5,3.358-7.5,7.5v8.5
	h-17.909c-0.858-3.498-2.302-6.767-4.221-9.7c3.015-1.307,5.13-4.31,5.13-7.8V263h17v8.5c0,4.142,3.358,7.5,7.5,7.5h144
	c4.142,0,7.5-3.358,7.5-7.5v-32c0-4.142-3.358-7.5-7.5-7.5h-144c-4.142,0-7.5,3.358-7.5,7.5v8.5h-17v-23.5
	c0-2.397-1.002-4.562-2.604-6.109c1.007-1.081,1.958-2.215,2.84-3.404c0.087,0.003,0.172,0.013,0.26,0.013H423.5
	c8.547,0,15.5-6.953,15.5-15.5V183h64.5c4.142,0,7.5-3.358,7.5-7.5v-32C511,139.358,507.642,136,503.5,136z M144,247v17h-33v-17H144
	z M63,247h33v17H63V247z M192,264h-33v-17h33V264z M111,311h33v17h-33V311z M192,328h-33v-17h33V328z M400,328h-33v-17h33V328z
	 M319,311h33v17h-33V311z M367,264v-17h33v17H367z M448,264h-33v-17h33V264z M319,247h33v17h-33V247z M415,168v-17h33v17H415z
	 M367,168v-17h33v17H367z M319,151h33v17h-33V151z M255.5,216c-13.509,0-24.5-10.991-24.5-24.5s10.991-24.5,24.5-24.5
	s24.5,10.991,24.5,24.5S269.009,216,255.5,216z M272,231v57h-33v-57H272z M239.5,135h32c0.276,0,0.5,0.224,0.5,0.5v20.125
	c-5.025-2.32-10.612-3.625-16.5-3.625s-11.475,1.305-16.5,3.625V135.5C239,135.224,239.224,135,239.5,135z M192,168h-33v-17h33V168z
	 M111,151h33v17h-33V151z M96,168H63v-17h33V168z M15,151h33v17H15V151z M191.5,200c-0.276,0-0.5-0.224-0.5-0.5V183h8.5
	c4.142,0,7.5-3.358,7.5-7.5V167h17v0.5c0,0.063,0.008,0.125,0.01,0.188c-5.022,6.626-8.01,14.875-8.01,23.812
	c0,2.918,0.328,5.76,0.931,8.5H191.5z M264,392h-17v-29.186c0-0.133,0.052-0.259,0.146-0.354l8.354-8.354l8.354,8.354c0,0,0,0,0,0
	c0.094,0.094,0.146,0.22,0.146,0.353V392z M255.5,336c-9.098,0-16.5-7.402-16.5-16.5s7.402-16.5,16.5-16.5s16.5,7.402,16.5,16.5
	S264.598,336,255.5,336z M424,199.5c0,0.276-0.224,0.5-0.5,0.5H294.069c0.604-2.74,0.931-5.582,0.931-8.5
	c0-8.936-2.987-17.186-8.01-23.812c0.002-0.063,0.01-0.125,0.01-0.188V167h17v8.5c0,4.142,3.358,7.5,7.5,7.5H424V199.5z M496,168
	h-33v-17h33V168z"/>
<g>
</g>
<g>
</g>
<g>
</g>
<g>
</g>
<g>
</g>
<g>
</g>
<g>
</g>
<g>
</g>
<g>
</g>
<g>
</g>
<g>
</g>
<g>
</g>
<g>
</g>
<g>
</g>
<g>
</g>
</svg>
